<?xml version="1.0" standalone="no"?>
<!DOCTYPE svg PUBLIC "-//W3C//DTD SVG 20010904//EN"
 "http://www.w3.org/TR/2001/REC-SVG-20010904/DTD/svg10.dtd">
<svg version="1.0" xmlns="http://www.w3.org/2000/svg"
 width="512.000000pt" height="512.000000pt" viewBox="0 0 512.000000 512.000000"
 preserveAspectRatio="xMidYMid meet">

<g transform="translate(0.000000,512.000000) scale(0.100000,-0.100000)"
fill="#fff" stroke="none">
<path d="M1090 4191 c-93 -29 -151 -95 -166 -190 -15 -92 -13 -94 482 -714
339 -424 467 -591 478 -624 20 -59 20 -147 0 -206 -11 -33 -139 -200 -478
-624 -495 -620 -497 -622 -482 -714 17 -105 90 -178 195 -195 92 -15 94 -13
714 482 424 339 591 467 624 478 26 9 72 16 103 16 31 0 77 -7 103 -16 33 -11
200 -139 624 -478 620 -495 622 -497 714 -482 105 17 178 90 195 195 15 92 13
94 -482 714 -339 424 -467 591 -478 624 -20 59 -20 147 0 206 11 33 139 200
478 624 495 620 497 622 482 714 -17 105 -90 178 -195 195 -92 15 -94 13 -714
-482 -424 -339 -591 -467 -624 -478 -59 -20 -147 -20 -206 0 -33 11 -200 139
-624 477 -417 334 -589 466 -619 475 -46 13 -86 14 -124 3z"/>
</g>
</svg>
